<?xml version="1.0" encoding="utf-8"?><svg xmlns="http://www.w3.org/2000/svg" xmlns:xlink="http://www.w3.org/1999/xlink"><symbol fill="none" viewBox="0 0 96 96" id="alert-error" xmlns="http://www.w3.org/2000/svg"><path d="M48 9a39 39 0 1039 39A39.075 39.075 0 0048 9zm-3 21a3 3 0 016 0v21a3 3 0 01-6 0V30zm3 39a4.5 4.5 0 110-8.999A4.5 4.5 0 0148 69z" fill="#F34D4D"/></symbol><symbol fill="none" viewBox="0 0 96 96" id="alert-success" xmlns="http://www.w3.org/2000/svg"><path d="M84.713 38.55c-1.425-1.462-2.888-3-3.45-4.313-.563-1.312-.526-3.262-.563-5.25-.038-3.637-.112-7.8-3-10.687-2.888-2.888-7.05-2.963-10.688-3-1.987-.038-4.012-.075-5.25-.563-1.237-.487-2.85-2.024-4.312-3.45C54.862 8.813 51.9 6 48 6c-3.9 0-6.862 2.813-9.45 5.287-1.462 1.425-3 2.888-4.313 3.45-1.312.563-3.262.525-5.25.563-3.637.037-7.8.112-10.687 3-2.888 2.887-2.963 7.05-3 10.688-.038 1.987-.075 4.012-.563 5.25-.487 1.237-2.024 2.85-3.45 4.312C8.813 41.138 6 44.1 6 48c0 3.9 2.813 6.862 5.287 9.45 1.425 1.462 2.888 3 3.45 4.313.563 1.312.525 3.262.563 5.25.037 3.637.112 7.8 3 10.687 2.887 2.888 7.05 2.962 10.688 3 1.987.037 4.012.075 5.25.563 1.237.487 2.85 2.024 4.312 3.45C41.138 87.188 44.1 90 48 90c3.9 0 6.862-2.813 9.45-5.287 1.462-1.425 3-2.888 4.313-3.45 1.312-.563 3.262-.526 5.25-.563 3.637-.038 7.8-.112 10.687-3 2.888-2.888 2.962-7.05 3-10.688.037-1.987.075-4.012.563-5.25.487-1.237 2.024-2.85 3.45-4.312C87.188 54.862 90 51.9 90 48c0-3.9-2.813-6.862-5.287-9.45zm-18.15 2.625l-21.976 21c-.568.534-1.32.83-2.1.825a2.963 2.963 0 01-2.062-.825l-10.987-10.5a2.998 2.998 0 01-.205-4.325 3 3 0 014.33-.025l8.924 8.512 19.95-19.012a3 3 0 014.126 4.35z" fill="#96E0B2"/></symbol><symbol fill="none" viewBox="0 0 104 104" id="alert-unknown" xmlns="http://www.w3.org/2000/svg"><path d="M50.47 4.634a4 4 0 013.06 0l30.88 12.79a4 4 0 012.165 2.166l12.791 30.88a4 4 0 010 3.06l-12.79 30.88a4 4 0 01-2.166 2.165L53.53 99.366a4 4 0 01-3.06 0l-30.88-12.79a4 4 0 01-2.165-2.166L4.634 53.53a4 4 0 010-3.06l12.79-30.88a4 4 0 012.166-2.165L50.47 4.634z" fill="#EAEAED"/><path d="M52 65.5c7.456 0 13.5-6.044 13.5-13.5S59.456 38.5 52 38.5 38.5 44.544 38.5 52 44.544 65.5 52 65.5z" stroke="#494957" stroke-width="2" stroke-miterlimit="10"/><path d="M52 45.25v7.875" stroke="#494957" stroke-width="2" stroke-linecap="round" stroke-linejoin="round"/><path d="M52 59.875a1.687 1.687 0 100-3.375 1.687 1.687 0 000 3.375z" fill="#494957"/></symbol></svg>